<?xml version="1.0" standalone="no"?>
<!DOCTYPE svg PUBLIC "-//W3C//DTD SVG 20010904//EN"
 "http://www.w3.org/TR/2001/REC-SVG-20010904/DTD/svg10.dtd">
<svg version="1.0" xmlns="http://www.w3.org/2000/svg"
 width="512.000000pt" height="512.000000pt" viewBox="0 0 512.000000 512.000000"
 preserveAspectRatio="xMidYMid meet">

<g transform="translate(0.000000,512.000000) scale(0.100000,-0.100000)"
fill="#000000" stroke="none">
<path d="M3785 3980 c-248 -33 -227 -28 -211 -52 8 -11 87 -93 175 -183 l161
-162 50 5 c60 6 58 -10 27 237 -20 155 -24 170 -42 172 -11 0 -83 -7 -160 -17z"/>
<path d="M3091 3894 c-57 -7 -105 -14 -107 -16 -1 -2 77 -84 176 -183 l178
-180 128 17 c71 9 133 17 137 17 5 1 -69 82 -165 181 -197 204 -162 188 -347
164z"/>
<path d="M2552 3831 c-73 -8 -131 -18 -130 -22 2 -4 81 -87 177 -184 l173
-178 130 16 c71 8 132 18 135 21 4 3 -74 86 -173 184 l-179 179 -133 -16z"/>
<path d="M1977 3762 c-70 -8 -126 -18 -125 -22 2 -4 80 -87 175 -185 l172
-178 111 13 c198 23 199 -2 -5 208 -97 100 -182 181 -188 181 -7 -1 -70 -9
-140 -17z"/>
<path d="M1407 3692 c-65 -8 -116 -18 -115 -22 2 -4 80 -87 174 -183 l170
-176 130 15 c71 8 132 16 137 17 14 4 -344 367 -361 366 -9 -1 -70 -8 -135
-17z"/>
<path d="M1115 3656 l-70 -11 0 -1225 c0 -1165 1 -1226 18 -1252 42 -62 -51
-58 1484 -58 1385 0 1398 0 1431 20 65 40 62 -11 62 1080 l0 990 -75 0 -74 0
-151 -197 -151 -198 -145 -5 c-80 -3 -147 -3 -149 0 -1 3 64 91 146 195 81
105 148 193 148 198 1 4 -59 7 -133 7 l-135 0 -113 -147 c-63 -82 -131 -171
-152 -200 l-37 -52 -150 -3 c-82 -2 -149 -2 -149 -1 0 4 262 348 281 369 11
11 19 23 19 27 0 4 -60 7 -134 7 l-134 0 -151 -199 -151 -200 -145 -3 c-104
-2 -144 0 -141 8 2 6 68 95 145 198 78 102 141 188 141 191 0 3 -62 5 -137 5
l-138 -1 -120 -160 -120 -160 -81 88 -81 87 53 71 53 70 -123 3 -123 3 -165
172 c-90 95 -191 200 -224 233 l-59 61 -70 -11z m119 -188 c9 -12 16 -28 16
-36 0 -18 -46 -62 -65 -62 -22 0 -55 37 -55 62 0 53 74 79 104 36z m-4 -458
c11 -11 20 -27 20 -35 0 -20 -45 -65 -65 -65 -22 0 -55 37 -55 62 0 52 62 76
100 38z m466 -5 c33 -51 -16 -108 -71 -83 -54 25 -35 108 25 108 20 0 35 -8
46 -25z m2052 -527 c3 -17 -61 -18 -1227 -18 -1055 0 -1231 2 -1231 14 0 8 6
17 13 19 6 3 559 5 1227 4 1148 -2 1215 -3 1218 -19z m0 -210 c3 -17 -61 -18
-1227 -18 -1256 0 -1258 0 -1224 33 3 4 556 6 1227 5 1153 -3 1221 -4 1224
-20z m2 -213 c0 -13 -140 -15 -1227 -13 -970 2 -1227 6 -1231 16 -3 9 247 12
1227 12 1089 0 1231 -2 1231 -15z m-2 -402 c-3 -17 -30 -18 -366 -21 l-362 -2
0 -144 c0 -108 -3 -146 -13 -155 -8 -6 -17 -8 -20 -4 -4 3 -7 73 -7 155 l0
148 -450 0 -450 0 0 -144 c0 -108 -3 -146 -13 -155 -8 -6 -17 -8 -20 -4 -4 3
-7 73 -7 155 l0 148 -369 0 c-358 0 -393 3 -376 30 4 7 425 10 1231 10 1162 0
1225 -1 1222 -17z"/>
</g>
</svg>
